<svg xmlns="http://www.w3.org/2000/svg" width="96" height="26" viewBox="0 0 96 26" fill="none">
  <g clip-path="url(#clip0_67_972)">
    <path
      d="M6.64257 8.79302C4.35295 8.79302 3.22899 10.8399 3.22899 13.573V20.4222H0V5.96869H3.17241V9.71851H3.2275C3.90485 7.413 5.2551 5.55005 7.33779 5.55005C8.80267 5.55005 9.42048 6.06886 9.42048 6.06886L7.96304 9.0457C7.96304 9.0442 7.49857 8.79302 6.64257 8.79302ZM45.6777 10.7771V20.4208H42.5321V11.9508C42.5321 9.51966 41.7803 8.23234 39.8599 8.23234C37.871 8.23234 36.9093 9.86055 36.9093 12.9839V20.4193H33.792V11.9508C33.792 9.61385 33.0491 8.23234 31.148 8.23234C28.9775 8.23234 28.1423 10.1611 28.1423 12.9839V20.4193H24.9699V5.96869H28.1423V9.24156H28.1706C28.6649 6.97642 30.0136 5.57846 32.2899 5.57846C34.5467 5.57846 36.0176 6.80896 36.5758 8.99038C37.1073 6.89119 38.5215 5.57846 40.695 5.57846C43.7275 5.57846 45.6777 7.50719 45.6777 10.7771ZM15.7668 5.55005C12.8475 5.55005 10.9375 6.94053 10.0666 9.45088L12.7537 10.4422C13.2435 8.92758 14.2647 8.06488 15.8234 8.06488C17.5771 8.06488 18.6072 8.84834 18.6072 10.0504C18.6072 11.2794 17.787 11.5366 15.935 11.8401C13.8747 12.1765 8.97536 12.2872 8.97536 16.4796C8.97536 18.9361 11 20.7841 14.0414 20.7841C16.328 20.7841 17.8852 19.8362 18.6057 18.0719H18.634V20.4208H21.7796V11.5321C21.7782 7.64325 19.8488 5.55005 15.7668 5.55005ZM18.6891 13.6178C18.6891 16.6485 17.2108 18.5952 14.8483 18.5952C13.178 18.5952 12.1761 17.6443 12.1761 16.2732C12.1761 14.9874 13.2062 14.0948 15.1817 13.727C17.2034 13.3502 18.2217 12.8852 18.6891 11.7698V13.6178ZM56.8668 5.57846C54.461 5.57846 52.8711 6.9196 52.1908 8.93506V5.96869H48.8501V25.9842H52.1625V17.4559H52.1908C52.9277 19.6388 54.4625 20.8394 56.8668 20.8394C60.6793 20.8394 63.4081 17.6532 63.4081 13.1514C63.4066 8.68088 60.6793 5.57846 56.8668 5.57846ZM56.045 18.1571C53.4041 18.1571 51.9392 16.2134 51.9392 13.1947C51.9392 10.176 53.5782 8.23234 56.045 8.23234C58.5103 8.23234 60.1508 10.2702 60.1508 13.1947C60.1508 16.1207 58.5118 18.1571 56.045 18.1571Z"
      fill="#1F1F1F66"
    />
    <path
      d="M96.2197 20.3553V20.4454L83.2915 20.45V20.3553C85.1557 19.2873 86.4425 18.1994 87.6004 17.0626H92.9089L96.2197 20.3553ZM93.0164 3.27641L89.7394 0.0158691H89.6442C89.6442 0.0158691 89.6995 6.09233 84.1975 11.6187C78.8137 17.0275 72.4824 17.0397 72.4824 17.0397V17.1345L75.8208 20.4515C75.8208 20.4515 82.0599 20.5142 87.5712 15.0305C93.0625 9.56524 93.0164 3.27641 93.0164 3.27641Z"
      fill="#1F1F1F66"
    />
  </g>
  <defs>
    <clipPath id="clip0_67_972">
      <rect width="96" height="25.9684" fill="white" transform="translate(0 0.0158691)"/>
    </clipPath>
  </defs>
</svg>
