<svg width="20" height="20" viewBox="0 0 20 20" fill="none" xmlns="http://www.w3.org/2000/svg">
<mask id="mask0_1_755" style="mask-type:alpha" maskUnits="userSpaceOnUse" x="0" y="0" width="20" height="20">
<rect width="20" height="20" fill="#D9D9D9"></rect>
</mask>
<g mask="url(#mask0_1_755)">
<path d="M5.625 18.3334C5 18.3334 4.46181 18.1215 4.01042 17.6979C3.55903 17.2743 3.33334 16.75 3.33334 16.125V4.50002C3.33334 3.97224 3.49653 3.50002 3.82292 3.08335C4.14931 2.66669 4.57639 2.4028 5.10417 2.29169L13.3333 0.666687V14L5.4375 15.5834C5.3125 15.6111 5.20834 15.6771 5.125 15.7813C5.04167 15.8854 5 16 5 16.125C5 16.2778 5.0625 16.4063 5.1875 16.5104C5.3125 16.6146 5.45834 16.6667 5.625 16.6667H15V3.33335H16.6667V18.3334H5.625ZM7.5 13.4792L11.6667 12.6667V2.70835L7.5 3.52085V13.4792ZM5.83334 13.8125V3.85419L5.52084 3.91669C5.36806 3.94446 5.24306 4.01044 5.14584 4.1146C5.04861 4.21877 5 4.34724 5 4.50002V14.0209C5.06945 13.9931 5.14236 13.9688 5.21875 13.9479C5.29514 13.9271 5.36806 13.9097 5.4375 13.8959L5.83334 13.8125Z" fill="#F6FAB2"></path>
</g>
</svg>