<svg width="20" height="20" viewBox="0 0 20 20" fill="none" xmlns="http://www.w3.org/2000/svg">
<mask id="mask0_1_743" style="mask-type:alpha" maskUnits="userSpaceOnUse" x="0" y="0" width="20" height="20">
<rect width="20" height="20" fill="#D9D9D9"></rect>
</mask>
<g mask="url(#mask0_1_743)">
<path d="M14.7918 16.875C13.9168 16.875 13.1772 16.5729 12.5731 15.9688C11.9689 15.3646 11.6668 14.625 11.6668 13.75C11.6668 12.875 11.9689 12.1354 12.5731 11.5312C13.1772 10.9271 13.9168 10.625 14.7918 10.625C15.6668 10.625 16.4064 10.9271 17.0106 11.5312C17.6147 12.1354 17.9168 12.875 17.9168 13.75C17.9168 14.625 17.6147 15.3646 17.0106 15.9688C16.4064 16.5729 15.6668 16.875 14.7918 16.875ZM14.7918 15.2083C15.1946 15.2083 15.5384 15.066 15.8231 14.7812C16.1078 14.4965 16.2502 14.1528 16.2502 13.75C16.2502 13.3472 16.1078 13.0035 15.8231 12.7188C15.5384 12.434 15.1946 12.2917 14.7918 12.2917C14.3891 12.2917 14.0453 12.434 13.7606 12.7188C13.4759 13.0035 13.3335 13.3472 13.3335 13.75C13.3335 14.1528 13.4759 14.4965 13.7606 14.7812C14.0453 15.066 14.3891 15.2083 14.7918 15.2083ZM3.3335 14.5833V12.9167H10.0002V14.5833H3.3335ZM5.2085 9.375C4.3335 9.375 3.59391 9.07292 2.98975 8.46875C2.38558 7.86458 2.0835 7.125 2.0835 6.25C2.0835 5.375 2.38558 4.63542 2.98975 4.03125C3.59391 3.42708 4.3335 3.125 5.2085 3.125C6.0835 3.125 6.82308 3.42708 7.42725 4.03125C8.03141 4.63542 8.3335 5.375 8.3335 6.25C8.3335 7.125 8.03141 7.86458 7.42725 8.46875C6.82308 9.07292 6.0835 9.375 5.2085 9.375ZM5.2085 7.70833C5.61127 7.70833 5.95502 7.56597 6.23975 7.28125C6.52447 6.99653 6.66683 6.65278 6.66683 6.25C6.66683 5.84722 6.52447 5.50347 6.23975 5.21875C5.95502 4.93403 5.61127 4.79167 5.2085 4.79167C4.80572 4.79167 4.46197 4.93403 4.17725 5.21875C3.89252 5.50347 3.75016 5.84722 3.75016 6.25C3.75016 6.65278 3.89252 6.99653 4.17725 7.28125C4.46197 7.56597 4.80572 7.70833 5.2085 7.70833ZM10.0002 7.08333V5.41667H16.6668V7.08333H10.0002Z" fill="#F6FAB2"></path>
</g>
</svg>